<?xml version="1.0" standalone="no"?>
<!DOCTYPE svg PUBLIC "-//W3C//DTD SVG 20010904//EN"
 "http://www.w3.org/TR/2001/REC-SVG-20010904/DTD/svg10.dtd">
<svg version="1.0" xmlns="http://www.w3.org/2000/svg"
 width="260.000000pt" height="260.000000pt" viewBox="0 0 260.000000 260.000000"
 preserveAspectRatio="xMidYMid meet">
<metadata>
Created by potrace 1.11, written by Peter Selinger 2001-2013
</metadata>
<g transform="translate(0.000000,260.000000) scale(0.100000,-0.100000)"
fill="#000000" stroke="none">
<path d="M0 1300 l0 -1300 1300 0 1300 0 0 1300 0 1300 -1300 0 -1300 0 0
-1300z m513 1120 c67 -25 132 -88 165 -158 66 -146 1 -321 -147 -394 -65 -32
-187 -32 -252 0 -192 94 -231 343 -78 490 81 78 204 102 312 62z m1902 -280
l0 -55 -760 0 -760 0 -3 44 c-2 24 -1 50 2 57 5 12 123 14 763 12 l758 -3 0
-55z m-1902 -560 c29 -11 72 -38 96 -62 191 -183 74 -501 -189 -516 -276 -16
-420 323 -219 516 81 78 204 102 312 62z m1902 -280 l0 -55 -760 0 -760 0 -3
44 c-2 24 -1 50 2 57 5 12 123 14 763 12 l758 -3 0 -55z m-1884 -568 c148 -72
213 -248 147 -394 -108 -236 -438 -236 -546 0 -71 156 9 344 174 407 57 21
167 15 225 -13z m1884 -272 l0 -55 -760 0 -760 0 -3 44 c-2 24 -1 50 2 57 5
12 123 14 763 12 l758 -3 0 -55z"/>
<path d="M341 2335 c-151 -47 -189 -251 -66 -353 105 -86 267 -46 320 80 45
110 -16 240 -129 273 -59 18 -68 18 -125 0z"/>
<path d="M355 1499 c-86 -19 -155 -108 -155 -199 0 -170 203 -266 335 -158
167 138 33 405 -180 357z"/>
<path d="M355 659 c-158 -36 -207 -247 -83 -355 130 -114 339 -17 338 158 -1
131 -124 226 -255 197z"/>
</g>
</svg>
